<svg width="214" height="67" viewBox="0 0 214 67" fill="none" xmlns="http://www.w3.org/2000/svg">
<g clip-path="url(#clip0_346_2125)">
<path d="M18.919 36.3561L42.24 0L86.5111 66.6517L54.6908 66.4288L35.7997 37.3592C32.4305 32.0302 26.2675 29.9682 18.9121 36.3561H18.919Z" fill="#0062AE"/>
<path d="M30.1699 53.3255L40.4994 53.207L44.0627 58.9889H33.6639L30.1699 53.3255Z" fill="#0062AE"/>
<path d="M16.9985 39.6094L32.9711 66.6518L0 66.5055L16.9985 39.6094Z" fill="#0062AE"/>
<path d="M112.834 53.59V46.5403H116.799C119.898 46.5403 121.195 47.5086 121.195 49.8492C121.195 50.922 121.195 53.59 117.465 53.59H112.834ZM112.834 57.7209H118.567C124.987 57.7209 126.179 52.2456 126.179 50.0722C126.179 45.3631 123.392 42.3955 118.761 42.3955H107.85V66.3868H112.834V57.7209Z" fill="black"/>
<path d="M135.031 62.0403H146.914V66.3871H130.054V42.4028H135.038V62.0403H135.031Z" fill="black"/>
<path d="M159.836 47.8082H159.906L162.866 57.289H156.779L159.843 47.8082H159.836ZM155.441 61.4269H164.259L165.791 66.3868H171.213L162.797 42.3955H157.043L148.522 66.3868H153.777L155.441 61.4269Z" fill="black"/>
<path d="M178 58.9958C178.034 60.3264 178.693 62.862 183.04 62.862C185.397 62.862 188.017 62.2978 188.017 59.7621C188.017 57.8952 186.229 57.3936 183.712 56.7945L181.147 56.1955C177.279 55.2968 173.542 54.4261 173.542 49.1597C173.542 46.4917 174.977 41.7896 182.742 41.7896C190.076 41.7896 192.038 46.5962 192.073 49.5289H187.269C187.137 48.4631 186.735 45.9274 182.367 45.9274C180.468 45.9274 178.201 46.631 178.201 48.7975C178.201 50.6644 179.733 51.0614 180.731 51.2983L186.541 52.7333C189.799 53.5344 192.801 54.8649 192.801 59.17C192.801 66.3729 185.48 67.0069 183.386 67.0069C174.679 67.0069 173.182 61.9704 173.182 59.0028H177.986L178 58.9958Z" fill="black"/>
<path d="M206.783 66.3871H201.799V46.6591H194.575V42.4028H214V46.6591H206.776V66.3871H206.783Z" fill="black"/>
<path d="M85.0693 53.3187L98.1718 53.1934L101.735 58.9752H88.5633L85.0693 53.3187Z" fill="black"/>
</g>
<defs>
<clipPath id="clip0_346_2125">
<rect width="214" height="67" fill="white"/>
</clipPath>
</defs>
</svg>
