<svg width="227" height="98" viewBox="0 0 227 98" fill="none" xmlns="http://www.w3.org/2000/svg">
<path d="M23.1179 74.696C19.2401 74.696 15.8014 74.0331 12.8018 72.7074C9.81889 71.3651 7.46567 69.5173 5.74219 67.1641C4.0187 64.8108 3.14039 62.1013 3.10724 59.0355H15.4865C15.5362 60.1458 15.8925 61.1319 16.5554 61.9936C17.2183 62.8388 18.1214 63.5017 19.2649 63.9822C20.4084 64.4628 21.7093 64.7031 23.1676 64.7031C24.6259 64.7031 25.9103 64.4463 27.0206 63.9325C28.1475 63.4022 29.0258 62.6813 29.6555 61.7699C30.2853 60.8419 30.5919 59.7812 30.5753 58.5881C30.5919 57.3949 30.2521 56.3343 29.5561 55.4062C28.8601 54.4782 27.8741 53.7573 26.598 53.2436C25.3385 52.7299 23.8471 52.473 22.1236 52.473H17.1768V43.723H22.1236C23.6316 43.723 24.9574 43.4744 26.1009 42.9773C27.2609 42.4801 28.1641 41.7841 28.8104 40.8892C29.4567 39.9777 29.7715 38.9337 29.755 37.7571C29.7715 36.6136 29.4981 35.611 28.9347 34.7493C28.3878 33.871 27.6172 33.1915 26.6229 32.7109C25.6451 32.2303 24.5099 31.9901 23.2173 31.9901C21.8584 31.9901 20.6238 32.2303 19.5135 32.7109C18.4197 33.1915 17.5497 33.871 16.9034 34.7493C16.2571 35.6276 15.9174 36.6468 15.8842 37.8068H4.12642C4.15956 34.7741 5.00474 32.1061 6.66193 29.8026C8.31913 27.4825 10.5729 25.6678 13.4233 24.3587C16.2902 23.0495 19.5549 22.3949 23.2173 22.3949C26.8632 22.3949 30.0698 23.0329 32.8374 24.3089C35.6049 25.585 37.7592 27.325 39.3004 29.5291C40.8416 31.7166 41.6122 34.1941 41.6122 36.9616C41.6288 39.8286 40.6925 42.1901 38.8033 44.0462C36.9306 45.9022 34.5194 47.0457 31.5696 47.4766V47.8743C35.5137 48.3383 38.4884 49.6143 40.4936 51.7024C42.5154 53.7905 43.518 56.4006 43.5014 59.5327C43.5014 62.4825 42.6314 65.1009 40.8913 67.3878C39.1679 69.6581 36.7649 71.4479 33.6825 72.7571C30.6167 74.0497 27.0952 74.696 23.1179 74.696ZM49.8216 65.5483V55.9531L70.6774 23.0909H79.2037V36.1165H74.2569L62.0517 55.456V55.8537H92.2541V65.5483H49.8216ZM74.4061 74V62.6151L74.6547 58.4141V23.0909H86.1639V74H74.4061ZM119.759 75.2429C115.318 75.2429 111.49 74.1906 108.275 72.0859C105.06 69.9647 102.583 66.9238 100.843 62.9631C99.1025 58.9858 98.2407 54.2048 98.2573 48.62C98.2739 43.0353 99.1439 38.2957 100.867 34.4013C102.607 30.4903 105.077 27.5156 108.275 25.4773C111.49 23.4223 115.318 22.3949 119.759 22.3949C124.201 22.3949 128.029 23.4223 131.244 25.4773C134.475 27.5156 136.961 30.4903 138.701 34.4013C140.441 38.3123 141.303 43.0518 141.286 48.62C141.286 54.2214 140.416 59.0107 138.676 62.9879C136.936 66.9652 134.459 70.0062 131.244 72.1108C128.045 74.1989 124.217 75.2429 119.759 75.2429ZM119.759 65.1754C122.411 65.1754 124.557 63.8248 126.198 61.1236C127.838 58.4058 128.65 54.2379 128.634 48.62C128.634 44.9411 128.261 41.9084 127.515 39.522C126.769 37.1191 125.734 35.3293 124.408 34.1527C123.082 32.9761 121.533 32.3878 119.759 32.3878C117.124 32.3878 114.995 33.7218 113.371 36.3899C111.747 39.0414 110.927 43.1181 110.91 48.62C110.893 52.3487 111.25 55.4394 111.979 57.892C112.725 60.3447 113.769 62.1759 115.111 63.3857C116.453 64.5788 118.003 65.1754 119.759 65.1754Z" fill="#0062AE"/>
<path d="M152.415 71V49.1818H158.182V53.0312H158.438C158.892 51.7528 159.65 50.7443 160.71 50.0057C161.771 49.267 163.04 48.8977 164.517 48.8977C166.013 48.8977 167.287 49.2718 168.338 50.0199C169.389 50.7585 170.09 51.7623 170.44 53.0312H170.668C171.113 51.7812 171.918 50.7822 173.082 50.0341C174.257 49.2765 175.644 48.8977 177.244 48.8977C179.28 48.8977 180.933 49.5464 182.202 50.8438C183.48 52.1316 184.119 53.9593 184.119 56.3267V71H178.082V57.5199C178.082 56.3078 177.76 55.3987 177.116 54.7926C176.473 54.1866 175.668 53.8835 174.702 53.8835C173.603 53.8835 172.746 54.2339 172.131 54.9347C171.515 55.6259 171.207 56.5398 171.207 57.6761V71H165.341V57.392C165.341 56.322 165.033 55.4697 164.418 54.8352C163.812 54.2008 163.011 53.8835 162.017 53.8835C161.345 53.8835 160.739 54.054 160.199 54.3949C159.669 54.7263 159.247 55.1951 158.935 55.8011C158.622 56.3977 158.466 57.0985 158.466 57.9034V71H152.415ZM194.382 64.7216L194.396 57.4631H195.277L202.266 49.1818H209.212L199.822 60.1477H198.388L194.382 64.7216ZM188.899 71V41.9091H194.95V71H188.899ZM202.536 71L196.115 61.4972L200.149 57.2216L209.624 71H202.536ZM212.18 71V49.1818H218.047V52.9886H218.274C218.672 51.6345 219.339 50.6117 220.277 49.9205C221.214 49.2197 222.294 48.8693 223.516 48.8693C223.819 48.8693 224.145 48.8883 224.496 48.9261C224.846 48.964 225.154 49.0161 225.419 49.0824V54.4517C225.135 54.3665 224.742 54.2907 224.24 54.2244C223.738 54.1581 223.279 54.125 222.862 54.125C221.972 54.125 221.177 54.3191 220.476 54.7074C219.785 55.0862 219.235 55.6165 218.828 56.2983C218.43 56.9801 218.232 57.7661 218.232 58.6562V71H212.18Z" fill="#0062AE"/>
</svg>
