<svg width="181" height="181" viewBox="0 0 181 181" fill="none" xmlns="http://www.w3.org/2000/svg">
<path d="M35.8345 135.725L70.1756 135.868C74.8936 135.868 78.7251 139.728 78.7251 144.446V155.912C78.7251 160.659 74.8936 164.49 70.147 164.49H32.9751C21.5376 164.49 13.1025 150.365 19.5647 139.156L40.9814 102.041L53.3625 109.19L42.8972 70.1309L3.83811 80.5962L16.2192 87.7446L4.7817 107.56C0.492639 114.794 0.349669 124.43 4.69592 131.636L19.0214 155.312" stroke="#0062AE" stroke-width="3" stroke-linecap="round" stroke-linejoin="round"/>
<path d="M81.4714 26.4095L64.1722 56.0898C61.7989 60.1787 56.5662 61.5512 52.4773 59.2065L42.5553 53.4592C38.4664 51.0859 37.0367 45.8532 39.41 41.7357L57.9959 9.53917C63.7147 -0.354268 80.1561 -0.611612 86.6468 10.5971L108.064 47.7118L95.6825 54.8603L134.742 65.3256L145.207 26.2665L132.826 33.4149L121.388 13.5995C117.242 6.27948 108.979 1.33276 100.572 1.50433L72.9218 2.0762" stroke="#0062AE" stroke-width="3" stroke-linecap="round" stroke-linejoin="round"/>
<path d="M150.581 123.515L133.511 93.7207C131.166 89.6318 132.567 84.3991 136.656 82.0258L146.578 76.2785C150.667 73.9052 155.928 75.3063 158.302 79.4238L176.888 111.62C182.606 121.514 174.6 135.896 161.647 135.896H118.785V121.6L90.1914 150.193L118.785 178.787V164.49H141.66C150.067 164.576 158.502 159.887 162.562 152.509L175.915 128.291" stroke="#0062AE" stroke-width="3" stroke-linecap="round" stroke-linejoin="round"/>
</svg>
