<svg width="232" height="113" viewBox="0 0 232 113" fill="none" xmlns="http://www.w3.org/2000/svg">
<path d="M124.294 38.0909V89H112.014V49.5753H111.716L100.331 56.5355V45.8963L112.884 38.0909H124.294ZM156.603 90.2429C152.162 90.2429 148.334 89.1906 145.119 87.0859C141.904 84.9647 139.426 81.9238 137.686 77.9631C135.946 73.9858 135.084 69.2048 135.101 63.62C135.118 58.0353 135.988 53.2957 137.711 49.4013C139.451 45.4903 141.92 42.5156 145.119 40.4773C148.334 38.4223 152.162 37.3949 156.603 37.3949C161.044 37.3949 164.873 38.4223 168.088 40.4773C171.319 42.5156 173.805 45.4903 175.545 49.4013C177.285 53.3123 178.147 58.0518 178.13 63.62C178.13 69.2214 177.26 74.0107 175.52 77.9879C173.78 81.9652 171.303 85.0062 168.088 87.1108C164.889 89.1989 161.061 90.2429 156.603 90.2429ZM156.603 80.1754C159.255 80.1754 161.401 78.8248 163.041 76.1236C164.682 73.4058 165.494 69.2379 165.477 63.62C165.477 59.9411 165.105 56.9084 164.359 54.522C163.613 52.1191 162.577 50.3293 161.252 49.1527C159.926 47.9761 158.376 47.3878 156.603 47.3878C153.968 47.3878 151.839 48.7218 150.215 51.3899C148.591 54.0414 147.77 58.1181 147.754 63.62C147.737 67.3487 148.093 70.4394 148.823 72.892C149.568 75.3447 150.612 77.1759 151.955 78.3857C153.297 79.5788 154.847 80.1754 156.603 80.1754ZM206.232 90.2429C201.791 90.2429 197.963 89.1906 194.748 87.0859C191.533 84.9647 189.055 81.9238 187.315 77.9631C185.575 73.9858 184.713 69.2048 184.73 63.62C184.747 58.0353 185.617 53.2957 187.34 49.4013C189.08 45.4903 191.549 42.5156 194.748 40.4773C197.963 38.4223 201.791 37.3949 206.232 37.3949C210.673 37.3949 214.501 38.4223 217.716 40.4773C220.948 42.5156 223.434 45.4903 225.174 49.4013C226.914 53.3123 227.776 58.0518 227.759 63.62C227.759 69.2214 226.889 74.0107 225.149 77.9879C223.409 81.9652 220.931 85.0062 217.716 87.1108C214.518 89.1989 210.69 90.2429 206.232 90.2429ZM206.232 80.1754C208.884 80.1754 211.03 78.8248 212.67 76.1236C214.311 73.4058 215.123 69.2379 215.106 63.62C215.106 59.9411 214.733 56.9084 213.988 54.522C213.242 52.1191 212.206 50.3293 210.881 49.1527C209.555 47.9761 208.005 47.3878 206.232 47.3878C203.597 47.3878 201.468 48.7218 199.844 51.3899C198.22 54.0414 197.399 58.1181 197.383 63.62C197.366 67.3487 197.722 70.4394 198.452 72.892C199.197 75.3447 200.241 77.1759 201.584 78.3857C202.926 79.5788 204.475 80.1754 206.232 80.1754Z" fill="#0062AE"/>
<g clip-path="url(#clip0_346_2330)">
<path d="M38.4997 18.2171C43.5303 18.2171 47.6049 14.141 47.6049 9.10857C47.6049 4.07617 43.5303 0 38.4997 0C33.4692 0 29.3945 4.07617 29.3945 9.10857C29.3945 14.141 33.4692 18.2171 38.4997 18.2171Z" fill="#0062AE"/>
<path d="M47.0538 20.7227H29.9667C20.7918 20.7227 20.5336 26.118 20.7987 32.5603L21.7895 50.6378L27.0852 56.103L30.1412 89.0194C30.3365 90.7295 31.5226 91.9998 32.932 91.9998H44.0815C45.484 91.9998 46.677 90.7295 46.8724 89.0194L49.9284 56.103L55.2241 50.6378L56.2148 32.5603C56.48 26.125 55.3845 20.7227 47.0468 20.7227" fill="#0062AE"/>
<path d="M15.7268 32.8051V32.7702C15.5873 29.4129 15.385 24.5201 18.0502 20.7301C16.9758 20.081 15.7059 19.7041 14.3593 19.7041C10.4172 19.7041 7.22168 22.9008 7.22168 26.8444C7.22168 30.7879 10.4172 33.9847 14.3593 33.9847C14.8477 33.9847 15.3291 33.9358 15.7896 33.8381L15.7338 32.833V32.7981L15.7268 32.8051Z" fill="#0062AE"/>
<path d="M18.1474 54.1772L16.8217 52.8162L16.7171 50.9177L15.8938 35.9531H7.22812C0.0346606 35.9531 -0.1607 40.1898 0.0486153 45.2362L0.830058 59.419L4.98845 63.7046L7.38162 89.5227C7.53511 90.8628 8.47005 91.8609 9.57245 91.8609H18.3218C19.4242 91.8609 20.3591 90.8628 20.5126 89.5227L22.8081 64.7655L22.2151 58.3581L18.1613 54.1842L18.1474 54.1772Z" fill="#0062AE"/>
<path d="M61.2941 32.7702V32.8051V32.84L61.2522 33.6217C61.9569 33.852 62.7105 33.9847 63.4989 33.9847C67.441 33.9847 70.6365 30.7879 70.6365 26.8444C70.6365 22.9008 67.441 19.7041 63.4989 19.7041C61.8034 19.7041 60.2405 20.2974 59.0195 21.2885C61.2801 24.8133 61.4476 29.1966 61.3011 32.7772" fill="#0062AE"/>
<path d="M69.7858 35.9523H61.1271L60.3038 50.9169L60.1992 52.8154L58.8735 54.1764L54.8198 58.3503L54.2197 64.7856L56.5152 89.5148C56.6687 90.855 57.5967 91.8531 58.6991 91.8531H67.4484C68.5508 91.8531 69.4858 90.855 69.6393 89.5148L72.0324 63.6968L76.1908 59.4112L76.9723 45.2284C77.1816 40.182 76.3234 35.9453 69.7858 35.9453" fill="#0062AE"/>
</g>
<defs>
<clipPath id="clip0_346_2330">
<rect width="77" height="92" fill="white"/>
</clipPath>
</defs>
</svg>
