<svg width="89" height="88" viewBox="0 0 89 88" fill="none" xmlns="http://www.w3.org/2000/svg">
<path d="M66.3561 34.4312C64.6456 34.0746 62.8531 33.7611 60.9785 33.4907" stroke="#0062AE" stroke-width="1.5" stroke-miterlimit="10" stroke-linecap="square"/>
<path d="M47.5353 32.4143C46.6467 32.3951 45.7512 32.3813 44.8473 32.3813C43.9434 32.3813 43.0478 32.3951 42.1592 32.4143" stroke="#0062AE" stroke-width="1.5" stroke-miterlimit="10" stroke-linecap="square"/>
<path d="M28.7164 33.4907C26.8446 33.7602 25.0521 34.0737 23.3389 34.4312" stroke="#0062AE" stroke-width="1.5" stroke-miterlimit="10" stroke-linecap="square"/>
<path d="M78.4549 38.3267C79.6344 38.8993 80.7577 39.5787 81.8105 40.3562C83.9701 41.9842 85.1758 43.7813 85.1758 45.6733C85.1758 53.013 67.1199 58.964 44.8477 58.964C22.5754 58.964 4.51953 53.013 4.51953 45.6733C4.51953 43.7813 5.7252 41.9842 7.88484 40.3562C8.93759 39.5787 10.0609 38.8993 11.2404 38.3267" stroke="#0062AE" stroke-width="1.5" stroke-miterlimit="10" stroke-linecap="square"/>
<path d="M33.4789 23.0767C33.1174 24.7679 32.7999 26.5403 32.5264 28.3938" stroke="#0062AE" stroke-width="1.5" stroke-miterlimit="10" stroke-linecap="square"/>
<path d="M31.4377 41.686C31.4182 42.5647 31.4043 43.4502 31.4043 44.3439C31.4043 45.2377 31.4182 46.1232 31.4377 47.0018" stroke="#0062AE" stroke-width="1.5" stroke-miterlimit="10" stroke-linecap="square"/>
<path d="M32.5264 60.2939C32.7989 62.1447 33.1165 63.9171 33.4789 65.6111" stroke="#0062AE" stroke-width="1.5" stroke-miterlimit="10" stroke-linecap="square"/>
<path d="M37.418 11.1141C37.9976 9.94815 38.6847 8.83749 39.4705 7.79625C41.1184 5.66088 42.936 4.46875 44.8481 4.46875C52.2726 4.46875 58.2913 22.3217 58.2913 44.3438C58.2913 66.3658 52.2726 84.2188 44.8481 84.2188C42.936 84.2188 41.1184 83.0266 39.4705 80.8913C38.6847 79.85 37.9976 78.7394 37.418 77.5734" stroke="#0062AE" stroke-width="1.5" stroke-miterlimit="10" stroke-linecap="square"/>
<path d="M44.8477 84.2188C67.1203 84.2188 85.1758 66.3661 85.1758 44.3438C85.1758 22.3214 67.1203 4.46875 44.8477 4.46875C22.575 4.46875 4.51953 22.3214 4.51953 44.3438C4.51953 66.3661 22.575 84.2188 44.8477 84.2188Z" stroke="#0062AE" stroke-width="1.5" stroke-miterlimit="10" stroke-linecap="square"/>
</svg>
