<svg width="106" height="107" viewBox="0 0 106 107" fill="none" xmlns="http://www.w3.org/2000/svg">
<path d="M83.6406 34.2734V64.3672C83.6406 68.0607 86.6066 71.0547 90.2656 71.0547H100.203V27.5859H90.2656C86.6066 27.5859 83.6406 30.58 83.6406 34.2734Z" stroke="#0062AE" stroke-width="1.5" stroke-miterlimit="10" stroke-linecap="square"/>
<path d="M83.6406 37.6172H37.2656C22.6301 37.6172 10.7657 49.5935 10.7657 64.3672L10.7656 74.3984" stroke="#0062AE" stroke-width="1.5" stroke-miterlimit="10" stroke-linecap="square"/>
<path d="M83.6406 57.6797H40.5781C35.0896 57.6797 30.6406 62.1707 30.6406 67.7109V74.3984" stroke="#0062AE" stroke-width="1.5" stroke-miterlimit="10" stroke-linecap="square"/>
<path d="M7.45312 74.3984H33.9531" stroke="#0062AE" stroke-width="1.5" stroke-miterlimit="10" stroke-linecap="square"/>
<path d="M50.5156 20.8984V37.6172" stroke="#0062AE" stroke-width="1.5" stroke-miterlimit="10"/>
<path d="M45.839 11.3591L42.3318 9.47082C37.0364 6.6199 30.6406 10.4935 30.6406 16.5517C30.6406 22.6099 37.0364 26.4835 42.3318 23.6326L45.839 21.7444C48.762 20.1708 52.2693 20.1708 55.1922 21.7444L58.6995 23.6326C63.9949 26.4835 70.3906 22.6099 70.3906 16.5517C70.3906 10.4935 63.9949 6.6199 58.6995 9.47082L55.1922 11.3591C52.2693 12.9326 48.762 12.9326 45.839 11.3591Z" stroke="#0062AE" stroke-width="1.5" stroke-miterlimit="10" stroke-linecap="square"/>
<path d="M20.7031 82.7578C25.0042 86.3801 28.9844 91.8137 28.9844 96.4812C28.9844 101.405 25.2765 104.492 20.7031 104.492C16.1298 104.492 12.4219 101.405 12.4219 96.4812C12.4219 91.8137 16.4462 86.3801 20.7031 82.7578Z" stroke="#0062AE" stroke-width="1.5" stroke-miterlimit="10" stroke-linecap="square"/>
</svg>
