<svg width="112" height="112" viewBox="0 0 112 112" fill="none" xmlns="http://www.w3.org/2000/svg">
<path d="M91.6865 52.4998L97.8474 54.8668C101.453 56.2523 103.833 59.7159 103.833 63.579V94.4998C103.833 97.0772 101.744 99.1665 99.1667 99.1665H89.8333C87.2559 99.1665 85.1667 97.0772 85.1667 94.4998V89.8332H29.1667V94.4998C29.1667 97.0772 27.0773 99.1665 24.5 99.1665H15.1667C12.5894 99.1665 10.5 97.0772 10.5 94.4998V63.4856C10.5 59.6692 12.8235 56.2369 16.367 54.8196L22.1667 52.4998L27.1712 35.8179C28.3556 31.8701 31.9893 29.1665 36.1109 29.1665H38.5" stroke="#0062AE" stroke-width="1.5" stroke-linecap="square"/>
<path d="M5.87965 43.1665H5.83301" stroke="#0062AE" stroke-width="1.5" stroke-linecap="square"/>
<path d="M38.0312 67C37.772 71.646 33.9236 75.333 29.2129 75.333H20.333V67H38.0312Z" stroke="#0062AE"/>
<path d="M94.0459 67V75.333H85.166C80.4553 75.3328 76.6079 71.6459 76.3486 67H94.0459Z" stroke="#0062AE"/>
<path d="M82.374 22.3638L82.4521 22.5474L82.6367 22.6265L97.8975 29.1665L82.6367 35.7075L82.4521 35.7856L82.374 35.9702L75.833 51.231L69.293 35.9702L69.2139 35.7856L69.0303 35.7075L53.7686 29.1665L69.0303 22.6265L69.2139 22.5474L69.293 22.3638L75.833 7.10205L82.374 22.3638Z" stroke="#0062AE"/>
<path d="M99.1738 10.2305L99.2529 10.4141L99.4365 10.4932L104.897 12.833L99.4365 15.1738L99.2529 15.2529L99.1738 15.4365L96.833 20.8975L94.4932 15.4365L94.4141 15.2529L94.2305 15.1738L88.7686 12.833L94.2305 10.4932L94.4141 10.4141L94.4932 10.2305L96.833 4.76855L99.1738 10.2305Z" stroke="#0062AE"/>
</svg>
