<svg width="176" height="52" viewBox="0 0 176 52" fill="none" xmlns="http://www.w3.org/2000/svg">
<path d="M50.375 26.1467C50.3743 21.4887 49.0389 16.9284 46.527 13.0057C44.0151 9.08308 40.4318 5.96228 36.2014 4.01282C31.9709 2.06336 27.2705 1.36687 22.6565 2.00581C18.0425 2.64474 13.7082 4.59235 10.1667 7.61806C6.62523 10.6438 4.02485 14.6209 2.67343 19.0785C1.322 23.5362 1.27613 28.2877 2.54125 32.7706C3.80636 37.2536 6.32948 41.2801 9.8119 44.3736C13.2943 47.4671 17.5902 49.4981 22.191 50.226V33.1919H16.0063V26.1467H22.1943V20.7761C22.1943 14.6669 25.8342 11.2926 31.4007 11.2926C33.2288 11.3179 35.0525 11.4768 36.8574 11.7679V17.7674H33.7805C33.2566 17.6983 32.724 17.7479 32.2218 17.9124C31.7197 18.077 31.261 18.3523 30.8796 18.718C30.4982 19.0837 30.2039 19.5304 30.0185 20.0252C29.833 20.52 29.7612 21.0501 29.8082 21.5764V26.1467H36.5698L35.4884 33.1919H29.8082V50.226C35.5421 49.319 40.7641 46.3953 44.5344 41.9811C48.3048 37.5669 50.3759 31.9519 50.375 26.1467Z" fill="white"/>
<path d="M95 9.50109C100.373 9.50109 101.01 9.52194 103.132 9.61825C104.408 9.63375 105.672 9.86811 106.869 10.3111C107.737 10.6462 108.525 11.1591 109.183 11.8169C109.841 12.4747 110.354 13.2628 110.689 14.1306C111.132 15.3276 111.366 16.5918 111.382 17.8681C111.478 19.9898 111.499 20.6266 111.499 26C111.499 31.3734 111.478 32.0102 111.382 34.1319C111.366 35.4082 111.132 36.6724 110.689 37.8694C110.354 38.7372 109.841 39.5253 109.183 40.1831C108.525 40.8409 107.737 41.3538 106.869 41.6889C105.672 42.1319 104.408 42.3662 103.132 42.3817C101.01 42.4781 100.374 42.4989 95 42.4989C89.6259 42.4989 88.9898 42.4781 86.8681 42.3817C85.5918 42.3662 84.3276 42.1319 83.1306 41.6889C82.2628 41.3538 81.4747 40.8409 80.8169 40.1831C80.1591 39.5253 79.6462 38.7372 79.3111 37.8694C78.8681 36.6724 78.6337 35.4082 78.6183 34.1319C78.5219 32.0102 78.5011 31.3734 78.5011 26C78.5011 20.6266 78.5219 19.9898 78.6183 17.8681C78.6337 16.5918 78.8681 15.3276 79.3111 14.1306C79.6462 13.2628 80.1591 12.4747 80.8169 11.8169C81.4747 11.1591 82.2628 10.6462 83.1306 10.3111C84.3276 9.86811 85.5918 9.63375 86.8681 9.61825C88.9898 9.52194 89.6266 9.50109 95 9.50109ZM95 5.875C89.5375 5.875 88.8489 5.898 86.7027 5.99575C85.0325 6.02861 83.3799 6.34455 81.8152 6.93012C80.4788 7.44784 79.2651 8.2389 78.2519 9.25268C77.2388 10.2665 76.4485 11.4806 75.9316 12.8174C75.346 14.382 75.03 16.0346 74.9972 17.7049C74.898 19.8489 74.875 20.5375 74.875 26C74.875 31.4625 74.898 32.1511 74.9958 34.2972C75.0286 35.9675 75.3445 37.6201 75.9301 39.1847C76.4474 40.5215 77.2382 41.7355 78.2517 42.749C79.2652 43.7626 80.4792 44.5533 81.816 45.0706C83.3806 45.6562 85.0332 45.9721 86.7035 46.005C88.8489 46.102 89.5375 46.125 95 46.125C100.462 46.125 101.151 46.102 103.297 46.0042C104.968 45.9714 106.62 45.6555 108.185 45.0699C109.521 44.5526 110.735 43.7618 111.749 42.7483C112.763 41.7348 113.553 40.5208 114.071 39.184C114.656 37.6194 114.972 35.9668 115.005 34.2965C115.102 32.1511 115.125 31.4625 115.125 26C115.125 20.5375 115.102 19.8489 115.004 17.7027C114.971 16.0325 114.655 14.3799 114.07 12.8152C113.552 11.4788 112.761 10.2651 111.747 9.25194C110.734 8.23878 109.519 7.44846 108.183 6.93156C106.618 6.34598 104.965 6.03004 103.295 5.99719C101.151 5.898 100.462 5.875 95 5.875Z" fill="white"/>
<path d="M95.0002 15.666C92.9563 15.666 90.9583 16.2721 89.2588 17.4076C87.5594 18.5432 86.2348 20.1572 85.4527 22.0455C84.6705 23.9338 84.4658 26.0117 84.8646 28.0163C85.2633 30.0209 86.2476 31.8623 87.6928 33.3076C89.1381 34.7528 90.9795 35.7371 92.9841 36.1358C94.9887 36.5346 97.0666 36.3299 98.9549 35.5477C100.843 34.7656 102.457 33.441 103.593 31.7416C104.728 30.0421 105.334 28.0441 105.334 26.0002C105.334 23.2594 104.246 20.6309 102.308 18.6928C100.37 16.7548 97.741 15.666 95.0002 15.666ZM95.0002 32.7083C93.6735 32.7083 92.3765 32.3149 91.2734 31.5778C90.1702 30.8407 89.3105 29.793 88.8027 28.5673C88.295 27.3415 88.1622 25.9928 88.421 24.6915C88.6798 23.3903 89.3187 22.195 90.2569 21.2569C91.195 20.3187 92.3903 19.6798 93.6915 19.421C94.9928 19.1622 96.3415 19.295 97.5673 19.8027C98.793 20.3105 99.8407 21.1702 100.578 22.2734C101.315 23.3765 101.708 24.6735 101.708 26.0002C101.708 26.8811 101.535 27.7535 101.198 28.5674C100.861 29.3813 100.367 30.1208 99.7438 30.7438C99.1208 31.3667 98.3813 31.8608 97.5674 32.1979C96.7535 32.5349 95.8812 32.7084 95.0002 32.7083Z" fill="white"/>
<path d="M105.742 17.6728C107.076 17.6728 108.157 16.5915 108.157 15.2578C108.157 13.924 107.076 12.8428 105.742 12.8428C104.408 12.8428 103.327 13.924 103.327 15.2578C103.327 16.5915 104.408 17.6728 105.742 17.6728Z" fill="white"/>
<g clip-path="url(#clip0_346_2203)">
<path d="M174.397 7H139.603C138.713 7 138 7.7125 138 8.60312V43.4562C138 44.2875 138.713 45 139.603 45H174.456C175.347 45 176.059 44.2875 176.059 43.3969V8.60312C176 7.7125 175.287 7 174.397 7ZM149.281 39.3594H143.641V21.25H149.281V39.3594ZM146.431 18.7562C144.65 18.7562 143.166 17.2719 143.166 15.4906C143.166 13.7094 144.65 12.225 146.431 12.225C148.212 12.225 149.697 13.7094 149.697 15.4906C149.697 17.3313 148.272 18.7562 146.431 18.7562ZM170.359 39.3594H164.719V30.5719C164.719 28.4937 164.659 25.7625 161.809 25.7625C158.9 25.7625 158.425 28.0781 158.425 30.3938V39.3594H152.784V21.25H158.188V23.7437H158.247C159.019 22.3188 160.859 20.8344 163.591 20.8344C169.291 20.8344 170.359 24.575 170.359 29.4438V39.3594Z" fill="white"/>
</g>
<defs>
<clipPath id="clip0_346_2203">
<rect width="38" height="38" fill="white" transform="translate(138 7)"/>
</clipPath>
</defs>
</svg>
